<mxfile host="app.diagrams.net" modified="2023-09-21T07:05:40.562Z" agent="Mozilla/5.0 (Windows NT 10.0; Win64; x64) AppleWebKit/537.36 (KHTML, like Gecko) Chrome/117.0.0.0 Safari/537.36" etag="u2q0w9siDkEhHcV4fvXI" version="21.8.0" type="device">
  <diagram id="eR1Zb5RVLTV1uuEW3yPG" name="Page-1">
    <mxGraphModel dx="880" dy="3997" grid="1" gridSize="10" guides="1" tooltips="1" connect="1" arrows="1" fold="1" page="1" pageScale="1" pageWidth="827" pageHeight="1169" math="0" shadow="0">
      <root>
        <mxCell id="0" />
        <mxCell id="1" parent="0" />
        <mxCell id="NN8kFv3UxyB4Z3Qv7Q7P-32" style="edgeStyle=orthogonalEdgeStyle;rounded=0;orthogonalLoop=1;jettySize=auto;html=1;exitX=1;exitY=0.5;exitDx=0;exitDy=0;entryX=0.5;entryY=0;entryDx=0;entryDy=0;" parent="1" edge="1">
          <mxGeometry relative="1" as="geometry">
            <mxPoint x="560" y="400" as="sourcePoint" />
          </mxGeometry>
        </mxCell>
        <mxCell id="NN8kFv3UxyB4Z3Qv7Q7P-39" style="edgeStyle=orthogonalEdgeStyle;rounded=0;orthogonalLoop=1;jettySize=auto;html=1;exitX=0;exitY=0.5;exitDx=0;exitDy=0;entryX=0;entryY=0;entryDx=40;entryDy=0;entryPerimeter=0;" parent="1" edge="1">
          <mxGeometry relative="1" as="geometry">
            <mxPoint x="480" y="400" as="sourcePoint" />
          </mxGeometry>
        </mxCell>
        <mxCell id="NN8kFv3UxyB4Z3Qv7Q7P-33" style="edgeStyle=orthogonalEdgeStyle;rounded=0;orthogonalLoop=1;jettySize=auto;html=1;exitX=1;exitY=0.5;exitDx=0;exitDy=0;" parent="1" edge="1">
          <mxGeometry relative="1" as="geometry">
            <mxPoint x="640" y="480" as="sourcePoint" />
          </mxGeometry>
        </mxCell>
        <mxCell id="NN8kFv3UxyB4Z3Qv7Q7P-38" style="edgeStyle=orthogonalEdgeStyle;rounded=0;orthogonalLoop=1;jettySize=auto;html=1;exitX=0;exitY=0.5;exitDx=0;exitDy=0;entryX=0;entryY=0;entryDx=40;entryDy=0;entryPerimeter=0;" parent="1" edge="1">
          <mxGeometry relative="1" as="geometry">
            <mxPoint x="560" y="480" as="sourcePoint" />
          </mxGeometry>
        </mxCell>
        <mxCell id="NN8kFv3UxyB4Z3Qv7Q7P-37" style="edgeStyle=orthogonalEdgeStyle;rounded=0;orthogonalLoop=1;jettySize=auto;html=1;exitX=0;exitY=0.5;exitDx=0;exitDy=0;entryX=0;entryY=0;entryDx=40;entryDy=0;entryPerimeter=0;" parent="1" edge="1">
          <mxGeometry relative="1" as="geometry">
            <mxPoint x="640" y="560" as="sourcePoint" />
          </mxGeometry>
        </mxCell>
        <mxCell id="NN8kFv3UxyB4Z3Qv7Q7P-41" style="edgeStyle=orthogonalEdgeStyle;rounded=0;orthogonalLoop=1;jettySize=auto;html=1;exitX=1;exitY=0.5;exitDx=0;exitDy=0;entryX=0;entryY=0;entryDx=40;entryDy=0;entryPerimeter=0;" parent="1" edge="1">
          <mxGeometry relative="1" as="geometry">
            <mxPoint x="720" y="560" as="sourcePoint" />
          </mxGeometry>
        </mxCell>
        <mxCell id="sSCpmMaVxi6PYTEObbiI-27" style="edgeStyle=orthogonalEdgeStyle;rounded=0;orthogonalLoop=1;jettySize=auto;html=1;exitX=1;exitY=0.5;exitDx=0;exitDy=0;entryX=0;entryY=0.5;entryDx=0;entryDy=0;" parent="1" edge="1">
          <mxGeometry relative="1" as="geometry">
            <Array as="points">
              <mxPoint x="220" y="600" />
              <mxPoint x="220" y="750" />
              <mxPoint x="40" y="750" />
              <mxPoint x="40" y="320" />
            </Array>
            <mxPoint x="100" y="320" as="targetPoint" />
          </mxGeometry>
        </mxCell>
        <mxCell id="lwcZz6v842X9FkbV30nD-5" style="edgeStyle=orthogonalEdgeStyle;rounded=0;orthogonalLoop=1;jettySize=auto;html=1;exitX=0.5;exitY=1;exitDx=0;exitDy=0;entryX=0.5;entryY=0;entryDx=0;entryDy=0;" parent="1" source="lwcZz6v842X9FkbV30nD-1" target="lwcZz6v842X9FkbV30nD-3" edge="1">
          <mxGeometry relative="1" as="geometry" />
        </mxCell>
        <mxCell id="lwcZz6v842X9FkbV30nD-1" value="InÃ­cio" style="ellipse;whiteSpace=wrap;html=1;" parent="1" vertex="1">
          <mxGeometry x="192" y="-2351" width="120" height="40" as="geometry" />
        </mxCell>
        <mxCell id="8lL1hgmRi1uR1mn44wtz-3" style="edgeStyle=orthogonalEdgeStyle;rounded=0;orthogonalLoop=1;jettySize=auto;html=1;exitX=0.5;exitY=1;exitDx=0;exitDy=0;entryX=0.513;entryY=0;entryDx=0;entryDy=0;entryPerimeter=0;" parent="1" edge="1">
          <mxGeometry relative="1" as="geometry">
            <mxPoint x="255" y="-2248" as="sourcePoint" />
            <mxPoint x="251.07999999999993" y="-2211" as="targetPoint" />
          </mxGeometry>
        </mxCell>
        <mxCell id="lwcZz6v842X9FkbV30nD-3" value="quantidadeCandidato &amp;lt;- 0" style="rounded=0;whiteSpace=wrap;html=1;" parent="1" vertex="1">
          <mxGeometry x="161" y="-2281" width="180" height="33" as="geometry" />
        </mxCell>
        <mxCell id="NFvZZmDYg6qZ6bP0rbpK-44" style="edgeStyle=orthogonalEdgeStyle;rounded=0;orthogonalLoop=1;jettySize=auto;html=1;exitX=0.5;exitY=1;exitDx=0;exitDy=0;entryX=0.5;entryY=0;entryDx=0;entryDy=0;" parent="1" source="Av98COTsaaubC5mDqvNm-4" target="NFvZZmDYg6qZ6bP0rbpK-43" edge="1">
          <mxGeometry relative="1" as="geometry" />
        </mxCell>
        <mxCell id="NFvZZmDYg6qZ6bP0rbpK-88" style="edgeStyle=orthogonalEdgeStyle;rounded=0;orthogonalLoop=1;jettySize=auto;html=1;exitX=1;exitY=0.5;exitDx=0;exitDy=0;entryX=0;entryY=0.5;entryDx=0;entryDy=0;" parent="1" source="Av98COTsaaubC5mDqvNm-4" target="NFvZZmDYg6qZ6bP0rbpK-83" edge="1">
          <mxGeometry relative="1" as="geometry" />
        </mxCell>
        <mxCell id="Av98COTsaaubC5mDqvNm-4" value="preencheQuantidadeCandidato( lista[], quantidadeCandidato )" style="shape=process;whiteSpace=wrap;html=1;backgroundOutline=1;" parent="1" vertex="1">
          <mxGeometry x="140" y="-1967" width="221" height="50" as="geometry" />
        </mxCell>
        <mxCell id="NFvZZmDYg6qZ6bP0rbpK-46" style="edgeStyle=orthogonalEdgeStyle;rounded=0;orthogonalLoop=1;jettySize=auto;html=1;exitX=0.5;exitY=1;exitDx=0;exitDy=0;entryX=0.5;entryY=0;entryDx=0;entryDy=0;" parent="1" source="NFvZZmDYg6qZ6bP0rbpK-43" target="NFvZZmDYg6qZ6bP0rbpK-45" edge="1">
          <mxGeometry relative="1" as="geometry" />
        </mxCell>
        <mxCell id="NFvZZmDYg6qZ6bP0rbpK-43" value="i" style="rounded=0;whiteSpace=wrap;html=1;" parent="1" vertex="1">
          <mxGeometry x="196" y="-1877" width="108" height="33" as="geometry" />
        </mxCell>
        <mxCell id="NFvZZmDYg6qZ6bP0rbpK-94" style="edgeStyle=orthogonalEdgeStyle;rounded=0;orthogonalLoop=1;jettySize=auto;html=1;exitX=0;exitY=0.5;exitDx=0;exitDy=0;entryX=0;entryY=0.5;entryDx=0;entryDy=0;" parent="1" source="NFvZZmDYg6qZ6bP0rbpK-45" target="Av98COTsaaubC5mDqvNm-4" edge="1">
          <mxGeometry relative="1" as="geometry">
            <Array as="points">
              <mxPoint x="110" y="-1767" />
              <mxPoint x="110" y="-1942" />
            </Array>
          </mxGeometry>
        </mxCell>
        <mxCell id="8lL1hgmRi1uR1mn44wtz-11" style="edgeStyle=orthogonalEdgeStyle;rounded=0;orthogonalLoop=1;jettySize=auto;html=1;exitX=0.5;exitY=1;exitDx=0;exitDy=0;" parent="1" source="NFvZZmDYg6qZ6bP0rbpK-45" edge="1">
          <mxGeometry relative="1" as="geometry">
            <mxPoint x="254" y="-1700" as="targetPoint" />
          </mxGeometry>
        </mxCell>
        <mxCell id="NFvZZmDYg6qZ6bP0rbpK-45" value="i &amp;lt; quantidadeCandidato" style="rhombus;whiteSpace=wrap;html=1;" parent="1" vertex="1">
          <mxGeometry x="178" y="-1807" width="143" height="80" as="geometry" />
        </mxCell>
        <mxCell id="NFvZZmDYg6qZ6bP0rbpK-87" style="edgeStyle=orthogonalEdgeStyle;rounded=0;orthogonalLoop=1;jettySize=auto;html=1;exitX=0;exitY=0;exitDx=56.25;exitDy=50;exitPerimeter=0;entryX=0.514;entryY=0.275;entryDx=0;entryDy=0;entryPerimeter=0;" parent="1" source="NFvZZmDYg6qZ6bP0rbpK-47" target="NFvZZmDYg6qZ6bP0rbpK-49" edge="1">
          <mxGeometry relative="1" as="geometry" />
        </mxCell>
        <mxCell id="NFvZZmDYg6qZ6bP0rbpK-47" value="&quot;Nota do %d Candidato: i+1" style="shape=display;whiteSpace=wrap;html=1;" parent="1" vertex="1">
          <mxGeometry x="195" y="-1697" width="110" height="50" as="geometry" />
        </mxCell>
        <mxCell id="I0gNmCp4EnM44htRep4t-3" style="edgeStyle=orthogonalEdgeStyle;rounded=0;orthogonalLoop=1;jettySize=auto;html=1;exitX=0.5;exitY=1;exitDx=0;exitDy=0;entryX=0.5;entryY=0;entryDx=0;entryDy=0;" parent="1" source="NFvZZmDYg6qZ6bP0rbpK-49" target="I0gNmCp4EnM44htRep4t-1" edge="1">
          <mxGeometry relative="1" as="geometry" />
        </mxCell>
        <mxCell id="NFvZZmDYg6qZ6bP0rbpK-49" value="lista[i]" style="shape=manualInput;whiteSpace=wrap;html=1;" parent="1" vertex="1">
          <mxGeometry x="214" y="-1617" width="72" height="40" as="geometry" />
        </mxCell>
        <mxCell id="NFvZZmDYg6qZ6bP0rbpK-93" style="edgeStyle=orthogonalEdgeStyle;rounded=0;orthogonalLoop=1;jettySize=auto;html=1;exitX=0;exitY=0;exitDx=0;exitDy=0;entryX=0;entryY=0.5;entryDx=0;entryDy=0;" parent="1" source="NFvZZmDYg6qZ6bP0rbpK-50" target="NFvZZmDYg6qZ6bP0rbpK-83" edge="1">
          <mxGeometry relative="1" as="geometry">
            <Array as="points">
              <mxPoint x="380" y="-1796" />
              <mxPoint x="380" y="-1942" />
            </Array>
          </mxGeometry>
        </mxCell>
        <mxCell id="I0gNmCp4EnM44htRep4t-10" style="edgeStyle=orthogonalEdgeStyle;rounded=0;orthogonalLoop=1;jettySize=auto;html=1;exitX=0.5;exitY=1;exitDx=0;exitDy=0;entryX=0.5;entryY=0;entryDx=0;entryDy=0;" parent="1" source="NFvZZmDYg6qZ6bP0rbpK-50" target="I0gNmCp4EnM44htRep4t-8" edge="1">
          <mxGeometry relative="1" as="geometry" />
        </mxCell>
        <mxCell id="NFvZZmDYg6qZ6bP0rbpK-50" value="i &amp;lt; quantidadeCandidato" style="rhombus;whiteSpace=wrap;html=1;" parent="1" vertex="1">
          <mxGeometry x="436" y="-1816" width="160" height="80" as="geometry" />
        </mxCell>
        <mxCell id="NFvZZmDYg6qZ6bP0rbpK-51" value="F" style="text;html=1;strokeColor=none;fillColor=none;align=center;verticalAlign=middle;whiteSpace=wrap;rounded=0;" parent="1" vertex="1">
          <mxGeometry x="430" y="-1628" width="40" height="20" as="geometry" />
        </mxCell>
        <mxCell id="NFvZZmDYg6qZ6bP0rbpK-52" value="V" style="text;html=1;strokeColor=none;fillColor=none;align=center;verticalAlign=middle;whiteSpace=wrap;rounded=0;" parent="1" vertex="1">
          <mxGeometry x="260" y="-1727" width="30" height="20" as="geometry" />
        </mxCell>
        <mxCell id="NFvZZmDYg6qZ6bP0rbpK-53" value="Fim" style="ellipse;whiteSpace=wrap;html=1;" parent="1" vertex="1">
          <mxGeometry x="923" y="-1962" width="120" height="40" as="geometry" />
        </mxCell>
        <mxCell id="NFvZZmDYg6qZ6bP0rbpK-57" style="edgeStyle=orthogonalEdgeStyle;rounded=0;orthogonalLoop=1;jettySize=auto;html=1;exitX=0.5;exitY=1;exitDx=0;exitDy=0;entryX=0.5;entryY=0;entryDx=0;entryDy=0;" parent="1" source="NFvZZmDYg6qZ6bP0rbpK-55" target="NFvZZmDYg6qZ6bP0rbpK-50" edge="1">
          <mxGeometry relative="1" as="geometry" />
        </mxCell>
        <mxCell id="NFvZZmDYg6qZ6bP0rbpK-55" value="i, j" style="rounded=0;whiteSpace=wrap;html=1;" parent="1" vertex="1">
          <mxGeometry x="463" y="-1886" width="108" height="33" as="geometry" />
        </mxCell>
        <mxCell id="NFvZZmDYg6qZ6bP0rbpK-61" style="edgeStyle=orthogonalEdgeStyle;rounded=0;orthogonalLoop=1;jettySize=auto;html=1;exitX=0.5;exitY=1;exitDx=0;exitDy=0;entryX=0.5;entryY=0;entryDx=0;entryDy=0;" parent="1" source="NFvZZmDYg6qZ6bP0rbpK-58" target="NFvZZmDYg6qZ6bP0rbpK-60" edge="1">
          <mxGeometry relative="1" as="geometry" />
        </mxCell>
        <mxCell id="I0gNmCp4EnM44htRep4t-11" style="edgeStyle=orthogonalEdgeStyle;rounded=0;orthogonalLoop=1;jettySize=auto;html=1;exitX=0;exitY=0.5;exitDx=0;exitDy=0;entryX=0;entryY=0.5;entryDx=0;entryDy=0;" parent="1" source="NFvZZmDYg6qZ6bP0rbpK-58" target="I0gNmCp4EnM44htRep4t-8" edge="1">
          <mxGeometry relative="1" as="geometry" />
        </mxCell>
        <mxCell id="NFvZZmDYg6qZ6bP0rbpK-58" value="j &amp;lt; quantidadeCandidato-i" style="rhombus;whiteSpace=wrap;html=1;" parent="1" vertex="1">
          <mxGeometry x="441" y="-1628" width="150" height="80" as="geometry" />
        </mxCell>
        <mxCell id="NFvZZmDYg6qZ6bP0rbpK-71" style="edgeStyle=orthogonalEdgeStyle;rounded=0;orthogonalLoop=1;jettySize=auto;html=1;exitX=0.5;exitY=1;exitDx=0;exitDy=0;entryX=0.5;entryY=0;entryDx=0;entryDy=0;" parent="1" source="NFvZZmDYg6qZ6bP0rbpK-60" target="NFvZZmDYg6qZ6bP0rbpK-62" edge="1">
          <mxGeometry relative="1" as="geometry" />
        </mxCell>
        <mxCell id="I0gNmCp4EnM44htRep4t-6" style="edgeStyle=orthogonalEdgeStyle;rounded=0;orthogonalLoop=1;jettySize=auto;html=1;exitX=0;exitY=0.5;exitDx=0;exitDy=0;entryX=0;entryY=0.5;entryDx=0;entryDy=0;" parent="1" source="NFvZZmDYg6qZ6bP0rbpK-60" target="I0gNmCp4EnM44htRep4t-4" edge="1">
          <mxGeometry relative="1" as="geometry">
            <Array as="points">
              <mxPoint x="420" y="-1478" />
              <mxPoint x="420" y="-1305" />
            </Array>
          </mxGeometry>
        </mxCell>
        <mxCell id="NFvZZmDYg6qZ6bP0rbpK-60" value="lista[j] &amp;lt; lista[j+1]" style="rhombus;whiteSpace=wrap;html=1;" parent="1" vertex="1">
          <mxGeometry x="461" y="-1518" width="110" height="80" as="geometry" />
        </mxCell>
        <mxCell id="I0gNmCp4EnM44htRep4t-5" style="edgeStyle=orthogonalEdgeStyle;rounded=0;orthogonalLoop=1;jettySize=auto;html=1;exitX=0.5;exitY=1;exitDx=0;exitDy=0;entryX=0.5;entryY=0;entryDx=0;entryDy=0;" parent="1" source="NFvZZmDYg6qZ6bP0rbpK-62" target="I0gNmCp4EnM44htRep4t-4" edge="1">
          <mxGeometry relative="1" as="geometry" />
        </mxCell>
        <mxCell id="NFvZZmDYg6qZ6bP0rbpK-62" value="&lt;div&gt;x &amp;lt;- lista[j];&lt;span style=&quot;background-color: initial;&quot;&gt;&amp;nbsp;&lt;/span&gt;&lt;/div&gt;lista&lt;span style=&quot;background-color: initial;&quot;&gt;[j] &amp;lt;- lista[j+1];&amp;nbsp;&lt;/span&gt;&lt;br&gt;&lt;div&gt;&lt;span style=&quot;&quot;&gt;&lt;/span&gt;&lt;/div&gt;lista&lt;span style=&quot;background-color: initial;&quot;&gt;[j+1] &amp;lt;- x;&amp;nbsp;&lt;/span&gt;" style="rounded=0;whiteSpace=wrap;html=1;" parent="1" vertex="1">
          <mxGeometry x="440" y="-1411" width="153" height="60" as="geometry" />
        </mxCell>
        <mxCell id="NFvZZmDYg6qZ6bP0rbpK-65" value="V" style="text;html=1;strokeColor=none;fillColor=none;align=center;verticalAlign=middle;whiteSpace=wrap;rounded=0;" parent="1" vertex="1">
          <mxGeometry x="470" y="-1548" width="30" height="20" as="geometry" />
        </mxCell>
        <mxCell id="NFvZZmDYg6qZ6bP0rbpK-67" value="V" style="text;html=1;strokeColor=none;fillColor=none;align=center;verticalAlign=middle;whiteSpace=wrap;rounded=0;" parent="1" vertex="1">
          <mxGeometry x="482" y="-1736" width="30" height="20" as="geometry" />
        </mxCell>
        <mxCell id="NFvZZmDYg6qZ6bP0rbpK-68" value="F" style="text;html=1;strokeColor=none;fillColor=none;align=center;verticalAlign=middle;whiteSpace=wrap;rounded=0;" parent="1" vertex="1">
          <mxGeometry x="410" y="-1820" width="40" height="20" as="geometry" />
        </mxCell>
        <mxCell id="NFvZZmDYg6qZ6bP0rbpK-69" value="V" style="text;html=1;strokeColor=none;fillColor=none;align=center;verticalAlign=middle;whiteSpace=wrap;rounded=0;" parent="1" vertex="1">
          <mxGeometry x="470" y="-1438" width="30" height="20" as="geometry" />
        </mxCell>
        <mxCell id="NFvZZmDYg6qZ6bP0rbpK-73" value="F" style="text;html=1;strokeColor=none;fillColor=none;align=center;verticalAlign=middle;whiteSpace=wrap;rounded=0;" parent="1" vertex="1">
          <mxGeometry x="436" y="-1509" width="40" height="20" as="geometry" />
        </mxCell>
        <mxCell id="NFvZZmDYg6qZ6bP0rbpK-80" style="edgeStyle=orthogonalEdgeStyle;rounded=0;orthogonalLoop=1;jettySize=auto;html=1;exitX=0.5;exitY=1;exitDx=0;exitDy=0;entryX=0.5;entryY=0;entryDx=0;entryDy=0;" parent="1" target="NFvZZmDYg6qZ6bP0rbpK-55" edge="1">
          <mxGeometry relative="1" as="geometry">
            <mxPoint x="517" y="-1916" as="sourcePoint" />
          </mxGeometry>
        </mxCell>
        <mxCell id="NFvZZmDYg6qZ6bP0rbpK-91" style="edgeStyle=orthogonalEdgeStyle;rounded=0;orthogonalLoop=1;jettySize=auto;html=1;exitX=1;exitY=0.5;exitDx=0;exitDy=0;entryX=0;entryY=0.5;entryDx=0;entryDy=0;" parent="1" source="NFvZZmDYg6qZ6bP0rbpK-83" target="NFvZZmDYg6qZ6bP0rbpK-89" edge="1">
          <mxGeometry relative="1" as="geometry" />
        </mxCell>
        <mxCell id="NFvZZmDYg6qZ6bP0rbpK-83" value="ordenaNotasDecrescente( lista[], quantidadeCandidato )" style="shape=process;whiteSpace=wrap;html=1;backgroundOutline=1;" parent="1" vertex="1">
          <mxGeometry x="400" y="-1967" width="221" height="50" as="geometry" />
        </mxCell>
        <mxCell id="NFvZZmDYg6qZ6bP0rbpK-103" style="edgeStyle=orthogonalEdgeStyle;rounded=0;orthogonalLoop=1;jettySize=auto;html=1;exitX=1;exitY=0.5;exitDx=0;exitDy=0;entryX=0;entryY=0.5;entryDx=0;entryDy=0;" parent="1" source="NFvZZmDYg6qZ6bP0rbpK-89" target="NFvZZmDYg6qZ6bP0rbpK-53" edge="1">
          <mxGeometry relative="1" as="geometry" />
        </mxCell>
        <mxCell id="8lL1hgmRi1uR1mn44wtz-20" style="edgeStyle=orthogonalEdgeStyle;rounded=0;orthogonalLoop=1;jettySize=auto;html=1;exitX=0.5;exitY=1;exitDx=0;exitDy=0;entryX=0.5;entryY=0;entryDx=0;entryDy=0;" parent="1" source="NFvZZmDYg6qZ6bP0rbpK-89" target="NFvZZmDYg6qZ6bP0rbpK-92" edge="1">
          <mxGeometry relative="1" as="geometry" />
        </mxCell>
        <mxCell id="NFvZZmDYg6qZ6bP0rbpK-89" value="exibeNotas( lista[], quantidadeCandidato )" style="shape=process;whiteSpace=wrap;html=1;backgroundOutline=1;" parent="1" vertex="1">
          <mxGeometry x="680" y="-1967" width="170" height="50" as="geometry" />
        </mxCell>
        <mxCell id="NFvZZmDYg6qZ6bP0rbpK-98" style="edgeStyle=orthogonalEdgeStyle;rounded=0;orthogonalLoop=1;jettySize=auto;html=1;exitX=0.5;exitY=1;exitDx=0;exitDy=0;entryX=0.5;entryY=0;entryDx=0;entryDy=0;" parent="1" source="NFvZZmDYg6qZ6bP0rbpK-92" target="NFvZZmDYg6qZ6bP0rbpK-96" edge="1">
          <mxGeometry relative="1" as="geometry" />
        </mxCell>
        <mxCell id="NFvZZmDYg6qZ6bP0rbpK-92" value="i" style="rounded=0;whiteSpace=wrap;html=1;" parent="1" vertex="1">
          <mxGeometry x="711" y="-1877" width="108" height="33" as="geometry" />
        </mxCell>
        <mxCell id="NFvZZmDYg6qZ6bP0rbpK-95" value="F" style="text;html=1;strokeColor=none;fillColor=none;align=center;verticalAlign=middle;whiteSpace=wrap;rounded=0;" parent="1" vertex="1">
          <mxGeometry x="190" y="-1816" width="40" height="20" as="geometry" />
        </mxCell>
        <mxCell id="NFvZZmDYg6qZ6bP0rbpK-100" style="edgeStyle=orthogonalEdgeStyle;rounded=0;orthogonalLoop=1;jettySize=auto;html=1;exitX=0.5;exitY=1;exitDx=0;exitDy=0;entryX=0;entryY=0;entryDx=56.25;entryDy=0;entryPerimeter=0;" parent="1" source="NFvZZmDYg6qZ6bP0rbpK-96" target="NFvZZmDYg6qZ6bP0rbpK-99" edge="1">
          <mxGeometry relative="1" as="geometry" />
        </mxCell>
        <mxCell id="8lL1hgmRi1uR1mn44wtz-21" style="edgeStyle=orthogonalEdgeStyle;rounded=0;orthogonalLoop=1;jettySize=auto;html=1;exitX=0;exitY=0.5;exitDx=0;exitDy=0;" parent="1" source="NFvZZmDYg6qZ6bP0rbpK-96" edge="1">
          <mxGeometry relative="1" as="geometry">
            <mxPoint x="650" y="-1940" as="targetPoint" />
          </mxGeometry>
        </mxCell>
        <mxCell id="NFvZZmDYg6qZ6bP0rbpK-96" value="i &amp;lt; 3" style="rhombus;whiteSpace=wrap;html=1;" parent="1" vertex="1">
          <mxGeometry x="708" y="-1816" width="110" height="80" as="geometry" />
        </mxCell>
        <mxCell id="I0gNmCp4EnM44htRep4t-16" style="edgeStyle=orthogonalEdgeStyle;rounded=0;orthogonalLoop=1;jettySize=auto;html=1;exitX=0;exitY=0;exitDx=56.25;exitDy=50;exitPerimeter=0;entryX=0.5;entryY=0;entryDx=0;entryDy=0;" parent="1" source="NFvZZmDYg6qZ6bP0rbpK-99" target="I0gNmCp4EnM44htRep4t-15" edge="1">
          <mxGeometry relative="1" as="geometry" />
        </mxCell>
        <mxCell id="NFvZZmDYg6qZ6bP0rbpK-99" value="Nota: lista[i]" style="shape=display;whiteSpace=wrap;html=1;" parent="1" vertex="1">
          <mxGeometry x="705" y="-1711" width="110" height="50" as="geometry" />
        </mxCell>
        <mxCell id="NFvZZmDYg6qZ6bP0rbpK-104" value="F" style="text;html=1;strokeColor=none;fillColor=none;align=center;verticalAlign=middle;whiteSpace=wrap;rounded=0;" parent="1" vertex="1">
          <mxGeometry x="700" y="-1816" width="40" height="20" as="geometry" />
        </mxCell>
        <mxCell id="NFvZZmDYg6qZ6bP0rbpK-105" value="V" style="text;html=1;strokeColor=none;fillColor=none;align=center;verticalAlign=middle;whiteSpace=wrap;rounded=0;" parent="1" vertex="1">
          <mxGeometry x="720" y="-1736" width="30" height="20" as="geometry" />
        </mxCell>
        <mxCell id="8lL1hgmRi1uR1mn44wtz-5" style="edgeStyle=orthogonalEdgeStyle;rounded=0;orthogonalLoop=1;jettySize=auto;html=1;exitX=0;exitY=0;exitDx=87.5;exitDy=50;exitPerimeter=0;entryX=0.543;entryY=0.275;entryDx=0;entryDy=0;entryPerimeter=0;" parent="1" source="8lL1hgmRi1uR1mn44wtz-1" target="8lL1hgmRi1uR1mn44wtz-4" edge="1">
          <mxGeometry relative="1" as="geometry" />
        </mxCell>
        <mxCell id="8lL1hgmRi1uR1mn44wtz-1" value="Quantidade de candidatos que participaram do concurso?" style="shape=display;whiteSpace=wrap;html=1;" parent="1" vertex="1">
          <mxGeometry x="169" y="-2211" width="160" height="50" as="geometry" />
        </mxCell>
        <mxCell id="8lL1hgmRi1uR1mn44wtz-8" style="edgeStyle=orthogonalEdgeStyle;rounded=0;orthogonalLoop=1;jettySize=auto;html=1;exitX=0.5;exitY=1;exitDx=0;exitDy=0;entryX=0.5;entryY=0;entryDx=0;entryDy=0;" parent="1" source="8lL1hgmRi1uR1mn44wtz-4" target="8lL1hgmRi1uR1mn44wtz-7" edge="1">
          <mxGeometry relative="1" as="geometry" />
        </mxCell>
        <mxCell id="8lL1hgmRi1uR1mn44wtz-4" value="quantidadeCandidato" style="shape=manualInput;whiteSpace=wrap;html=1;" parent="1" vertex="1">
          <mxGeometry x="175" y="-2131" width="150" height="50" as="geometry" />
        </mxCell>
        <mxCell id="8lL1hgmRi1uR1mn44wtz-10" style="edgeStyle=orthogonalEdgeStyle;rounded=0;orthogonalLoop=1;jettySize=auto;html=1;exitX=0.5;exitY=1;exitDx=0;exitDy=0;entryX=0.5;entryY=0;entryDx=0;entryDy=0;" parent="1" source="8lL1hgmRi1uR1mn44wtz-7" target="Av98COTsaaubC5mDqvNm-4" edge="1">
          <mxGeometry relative="1" as="geometry" />
        </mxCell>
        <mxCell id="8lL1hgmRi1uR1mn44wtz-7" value="lista[quantidadeCandidato]" style="rounded=0;whiteSpace=wrap;html=1;" parent="1" vertex="1">
          <mxGeometry x="165" y="-2050" width="170" height="33" as="geometry" />
        </mxCell>
        <mxCell id="I0gNmCp4EnM44htRep4t-2" style="edgeStyle=orthogonalEdgeStyle;rounded=0;orthogonalLoop=1;jettySize=auto;html=1;exitX=1;exitY=0.5;exitDx=0;exitDy=0;entryX=1;entryY=0.5;entryDx=0;entryDy=0;" parent="1" source="I0gNmCp4EnM44htRep4t-1" target="NFvZZmDYg6qZ6bP0rbpK-45" edge="1">
          <mxGeometry relative="1" as="geometry">
            <Array as="points">
              <mxPoint x="340" y="-1522" />
              <mxPoint x="340" y="-1767" />
            </Array>
          </mxGeometry>
        </mxCell>
        <mxCell id="I0gNmCp4EnM44htRep4t-1" value="i &amp;lt;- i + 1" style="rounded=0;whiteSpace=wrap;html=1;" parent="1" vertex="1">
          <mxGeometry x="198" y="-1539" width="108" height="33" as="geometry" />
        </mxCell>
        <mxCell id="I0gNmCp4EnM44htRep4t-7" style="edgeStyle=orthogonalEdgeStyle;rounded=0;orthogonalLoop=1;jettySize=auto;html=1;exitX=1;exitY=0.5;exitDx=0;exitDy=0;entryX=1;entryY=0.5;entryDx=0;entryDy=0;" parent="1" source="I0gNmCp4EnM44htRep4t-4" target="NFvZZmDYg6qZ6bP0rbpK-58" edge="1">
          <mxGeometry relative="1" as="geometry">
            <Array as="points">
              <mxPoint x="630" y="-1305" />
              <mxPoint x="630" y="-1588" />
            </Array>
          </mxGeometry>
        </mxCell>
        <mxCell id="I0gNmCp4EnM44htRep4t-4" value="j &amp;lt;- j + 1" style="rounded=0;whiteSpace=wrap;html=1;" parent="1" vertex="1">
          <mxGeometry x="463" y="-1322" width="108" height="33" as="geometry" />
        </mxCell>
        <mxCell id="I0gNmCp4EnM44htRep4t-12" style="edgeStyle=orthogonalEdgeStyle;rounded=0;orthogonalLoop=1;jettySize=auto;html=1;exitX=0.5;exitY=1;exitDx=0;exitDy=0;" parent="1" source="I0gNmCp4EnM44htRep4t-8" edge="1">
          <mxGeometry relative="1" as="geometry">
            <mxPoint x="517" y="-1630" as="targetPoint" />
          </mxGeometry>
        </mxCell>
        <mxCell id="I0gNmCp4EnM44htRep4t-14" style="edgeStyle=orthogonalEdgeStyle;rounded=0;orthogonalLoop=1;jettySize=auto;html=1;exitX=1;exitY=0.5;exitDx=0;exitDy=0;entryX=1;entryY=0.5;entryDx=0;entryDy=0;" parent="1" source="I0gNmCp4EnM44htRep4t-8" target="NFvZZmDYg6qZ6bP0rbpK-50" edge="1">
          <mxGeometry relative="1" as="geometry">
            <Array as="points">
              <mxPoint x="620" y="-1686" />
              <mxPoint x="620" y="-1776" />
            </Array>
          </mxGeometry>
        </mxCell>
        <mxCell id="I0gNmCp4EnM44htRep4t-8" value="i &amp;lt;- i + 1" style="rounded=0;whiteSpace=wrap;html=1;" parent="1" vertex="1">
          <mxGeometry x="463" y="-1702.5" width="108" height="33" as="geometry" />
        </mxCell>
        <mxCell id="I0gNmCp4EnM44htRep4t-17" style="edgeStyle=orthogonalEdgeStyle;rounded=0;orthogonalLoop=1;jettySize=auto;html=1;exitX=1;exitY=0.5;exitDx=0;exitDy=0;entryX=1;entryY=0.5;entryDx=0;entryDy=0;" parent="1" source="I0gNmCp4EnM44htRep4t-15" target="NFvZZmDYg6qZ6bP0rbpK-96" edge="1">
          <mxGeometry relative="1" as="geometry" />
        </mxCell>
        <mxCell id="I0gNmCp4EnM44htRep4t-15" value="i &amp;lt;- i + 1" style="rounded=0;whiteSpace=wrap;html=1;" parent="1" vertex="1">
          <mxGeometry x="706" y="-1632" width="108" height="33" as="geometry" />
        </mxCell>
      </root>
    </mxGraphModel>
  </diagram>
</mxfile>
